<svg width="102" height="88" viewBox="0 0 102 88" fill="none" xmlns="http://www.w3.org/2000/svg">
<g id="sp_svg">
<path id="schar" d="M47.4509 28.8605C71.0258 24.8164 -15.4327 -24.9885 26.493 30.5535C68.4187 86.0955 -9.01791 48.5575 6.21255 34.3008" stroke="black" stroke-width="8" stroke-linecap="round"/>
<g id="pchar">
<path id="Vector 3" d="M42 38.9796L65.6107 84.4781" stroke="black" stroke-width="7" stroke-linecap="round"/>
<path id="Vector 4" d="M41.5116 35.497C39.6656 36.085 38.6645 38.0446 39.2757 39.8738C39.8868 41.703 41.8787 42.7092 43.7246 42.1212L41.5116 35.497ZM73.2237 38.8558C73.2277 38.8591 73.2003 38.8371 73.1617 38.7847C73.1222 38.731 73.0849 38.6644 73.057 38.5912C72.9984 38.437 73.022 38.3658 73.0121 38.456C72.9826 38.724 72.7776 39.3868 72.0529 40.4874C70.632 42.6454 68.0303 45.2853 64.9655 47.9586C61.9564 50.5833 58.7158 53.0569 56.2096 54.8852C54.9607 55.7962 53.9034 56.5402 53.161 57.0548C52.7899 57.3119 52.4979 57.5114 52.3005 57.6455C52.2018 57.7125 52.1268 57.7631 52.0774 57.7963C52.0527 57.8129 52.0344 57.8252 52.0227 57.833C52.0169 57.8369 52.0127 57.8397 52.0103 57.8413C52.009 57.8422 52.0082 57.8427 52.0078 57.843C52.0076 57.8431 52.0077 57.8431 52.0076 57.8431C52.0077 57.8431 52.008 57.8429 53.9947 60.7321C55.9814 63.6212 55.9819 63.6209 55.9824 63.6205C55.9828 63.6203 55.9834 63.6199 55.9841 63.6194C55.9854 63.6185 55.9872 63.6174 55.9894 63.6159C55.9938 63.613 55.9999 63.6089 56.0077 63.6037C56.0232 63.5933 56.0455 63.5783 56.0742 63.559C56.1316 63.5204 56.2149 63.4642 56.3222 63.3913C56.5367 63.2457 56.8471 63.0336 57.2377 62.7629C58.0187 62.2217 59.1224 61.4449 60.4236 60.4957C63.0176 58.6034 66.4339 55.9989 69.6512 53.1925C72.8129 50.4348 76.0074 47.2909 77.9652 44.3174C78.9299 42.8523 79.8098 41.1124 80.0127 39.2664C80.241 37.1886 79.5794 35.0635 77.6915 33.5161L73.2237 38.8558ZM42.6181 38.8091C43.7246 42.1212 43.7243 42.1213 43.724 42.1214C43.7241 42.1214 43.7239 42.1214 43.724 42.1214C43.7242 42.1213 43.7248 42.1211 43.7258 42.1208C43.7277 42.1202 43.7312 42.1191 43.7362 42.1175C43.7462 42.1144 43.7624 42.1093 43.7845 42.1023C43.8287 42.0885 43.8968 42.0672 43.9872 42.0393C44.1682 41.9835 44.4388 41.9009 44.7881 41.797C45.487 41.5892 46.4992 41.2965 47.7374 40.9618C50.2202 40.2906 53.5817 39.4585 57.1333 38.8007C60.7102 38.1381 64.3518 37.6768 67.4324 37.6937C70.7265 37.7118 72.5248 38.2829 73.2237 38.8558L77.6915 33.5161C74.9474 31.267 70.9192 30.755 67.4104 30.7358C63.688 30.7154 59.5501 31.2626 55.7779 31.9613C51.9803 32.6648 48.4232 33.5467 45.8244 34.2493C44.5219 34.6014 43.4527 34.9105 42.7053 35.1327C42.3315 35.2439 42.0378 35.3334 41.8353 35.3959C41.734 35.4272 41.6554 35.4517 41.601 35.4687C41.5738 35.4773 41.5527 35.484 41.5377 35.4887C41.5302 35.4911 41.5243 35.4929 41.5199 35.4943C41.5177 35.495 41.5159 35.4956 41.5145 35.496C41.5139 35.4962 41.5131 35.4965 41.5128 35.4966C41.5121 35.4968 41.5116 35.497 42.6181 38.8091Z" fill="black"/>
</g>
<path id="pulse" d="M69.8181 59.3787H79.6399L81.7806 51.9601L85.0545 64.5717L89.084 54.3093L91.6024 59.3787H101.424" stroke="black"/>
</g>
</svg>
